<?xml version="1.0" standalone="no"?>
<!DOCTYPE svg PUBLIC "-//W3C//DTD SVG 20010904//EN"
 "http://www.w3.org/TR/2001/REC-SVG-20010904/DTD/svg10.dtd">
<svg version="1.0" xmlns="http://www.w3.org/2000/svg"
 width="891.000000pt" height="469.000000pt" viewBox="0 0 891.000000 469.000000"
 preserveAspectRatio="xMidYMid meet">

<g transform="translate(0.000000,469.000000) scale(0.100000,-0.100000)"
fill="#000000" stroke="none">
<path d="M6297 4067 c-81 -314 -188 -730 -239 -924 l-91 -352 -66 33 c-100 51
-228 93 -353 117 -97 18 -137 21 -288 17 -146 -4 -191 -9 -275 -31 -597 -157
-1120 -653 -1338 -1272 -65 -185 -104 -442 -92 -610 l7 -100 -21 27 -22 27
-127 -78 c-223 -137 -353 -224 -506 -340 l-149 -113 -50 23 -49 23 6 57 c16
141 107 395 269 749 175 384 227 513 282 702 86 294 87 516 2 685 -116 230
-321 299 -555 188 -138 -65 -260 -180 -375 -352 -67 -100 -93 -118 -127 -88
-17 15 -20 31 -20 92 0 156 -50 281 -141 353 -66 52 -107 63 -215 58 -153 -6
-235 -60 -384 -253 -81 -106 -103 -125 -139 -125 -36 0 -39 26 -14 157 14 69
22 127 20 130 -6 5 -360 84 -363 80 -2 -2 -180 -639 -397 -1417 -255 -917
-390 -1417 -383 -1421 27 -15 367 -81 375 -73 4 5 25 70 46 144 99 354 430
1497 461 1595 134 411 410 764 621 792 28 4 51 -1 80 -16 112 -56 132 -189 68
-445 -19 -77 -161 -557 -314 -1066 -235 -784 -275 -926 -262 -931 34 -13 361
-82 366 -77 3 3 32 97 64 209 33 112 143 492 245 844 207 718 225 773 302 935
153 319 370 533 542 533 118 0 163 -59 163 -212 0 -191 -54 -353 -281 -846
-246 -535 -300 -693 -315 -925 -15 -232 70 -423 218 -491 58 -26 169 -25 250
2 140 47 325 151 725 406 107 68 195 123 198 123 2 0 13 -19 25 -43 89 -174
255 -335 431 -417 134 -62 228 -82 411 -87 186 -6 275 4 390 43 200 68 330
195 462 452 53 103 87 133 131 113 28 -13 27 -5 24 -157 -3 -176 34 -281 130
-367 78 -71 141 -90 270 -84 117 5 147 15 341 113 77 38 754 437 797 469 1 1
-41 80 -94 174 -69 124 -100 171 -111 167 -8 -3 -217 -128 -466 -276 -484
-291 -497 -297 -524 -239 -12 25 132 595 910 3604 68 264 121 481 118 482 -13
5 -430 83 -443 83 -9 0 -59 -179 -161 -573z m-822 -1573 c146 -30 375 -123
375 -152 0 -20 -173 -688 -216 -837 -103 -348 -238 -601 -419 -780 -75 -75
-108 -99 -186 -138 -129 -65 -198 -81 -344 -81 -108 1 -129 4 -212 32 -285 97
-433 314 -434 634 0 503 316 1000 788 1237 208 104 422 132 648 85z"/>
<path d="M8350 1113 c-109 -18 -227 -83 -319 -173 -112 -112 -171 -239 -178
-390 -5 -84 -2 -104 21 -174 47 -139 122 -228 237 -280 213 -97 488 -18 640
185 94 124 137 306 107 456 -20 103 -57 180 -119 248 -93 101 -247 152 -389
128z"/>
</g>
</svg>
